<svg width="30" height="30" viewBox="0 0 30 30" fill="none" xmlns="http://www.w3.org/2000/svg">
<g clip-path="url(#clip0)">
<path d="M19.5131 16.3568C20.9843 20.0791 22.0768 23.9113 22.7868 27.8263C23.7996 27.2088 24.7462 26.4668 25.6066 25.6066C27.8414 23.3716 29.2836 20.5555 29.7931 17.499C27.5976 16.5908 25.1932 16.0881 22.6735 16.0881C21.5963 16.0881 20.5407 16.1811 19.5131 16.3568Z" fill="black"/>
<path d="M25.6192 4.4062C25.6148 4.40208 25.6107 4.39751 25.6066 4.39339C22.7733 1.56029 19.0066 0 15 0C13.4333 0 11.9032 0.239639 10.4514 0.699692C12.7785 3.61519 14.8256 6.72661 16.58 10.015C19.885 8.61168 22.9294 6.71036 25.6192 4.4062Z" fill="black"/>
<path d="M26.7977 5.73389C23.9761 8.15752 20.823 10.1216 17.3918 11.5894C17.8977 12.6077 18.3754 13.6422 18.8262 14.6921C20.0853 14.4525 21.37 14.3302 22.6735 14.3302C25.1983 14.3302 27.654 14.7843 29.9842 15.6781C29.9943 15.4529 30 15.227 30 15.0002C30 11.5962 28.8735 8.36603 26.7977 5.73389Z" fill="black"/>
<path d="M5.76721 26.8243C8.39317 28.8833 11.6108 30 15.0001 30C17.1543 30 19.239 29.5482 21.1467 28.6908C20.4317 24.5476 19.2868 20.5499 17.7592 16.7452C12.4508 18.1941 8.07732 21.9299 5.76721 26.8243Z" fill="black"/>
<path d="M14.7164 15.937C15.488 15.6106 16.2744 15.3342 17.0732 15.1066C16.6516 14.1412 16.2044 13.1895 15.7338 12.2513C11.6814 13.756 7.42035 14.5184 3.04321 14.5184C2.02629 14.5184 1.01601 14.4765 0.0130462 14.3946C0.0050354 14.5958 0 14.7977 0 15.0002C0 19.0068 1.56029 22.7735 4.39339 25.6066C4.3943 25.6075 4.39545 25.6084 4.39636 25.6093C5.37621 23.6552 6.65771 21.879 8.21915 20.3174C10.0962 18.4405 12.282 16.9668 14.7164 15.937Z" fill="black"/>
<path d="M14.9117 10.6726C13.1317 7.37605 11.0491 4.26578 8.70192 1.37866C7.12012 2.11131 5.66283 3.12411 4.39345 4.39349C2.12386 6.66309 0.672058 9.53212 0.184082 12.6435C1.12708 12.7207 2.0806 12.7607 3.04327 12.7607C7.20938 12.7607 11.2068 12.0233 14.9117 10.6726Z" fill="black"/>
</g>
<defs>
<clipPath id="clip0">
<rect width="30" height="30" fill="white"/>
</clipPath>
</defs>
</svg>
