<svg width="30" height="30" viewBox="0 0 30 30" fill="none" xmlns="http://www.w3.org/2000/svg">
<g clip-path="url(#clip0)">
<path d="M29.9708 8.82008C29.9005 7.22607 29.6427 6.1302 29.2735 5.18061C28.8926 4.17264 28.3065 3.27022 27.5387 2.52002C26.7885 1.75816 25.8801 1.16615 24.8838 0.79117C23.9287 0.421912 22.8386 0.16414 21.2446 0.0938599C19.6387 0.0176273 19.1288 0 15.0558 0C10.9827 0 10.4729 0.0176273 8.87293 0.0879078C7.27892 0.158188 6.18305 0.416188 5.23369 0.785218C4.2255 1.16615 3.32307 1.7522 2.57288 2.52002C1.81101 3.27022 1.21924 4.1786 0.844026 5.17488C0.474768 6.1302 0.216997 7.22011 0.146716 8.81413C0.0704838 10.42 0.0528564 10.9299 0.0528564 15.0029C0.0528564 19.076 0.0704838 19.5858 0.140764 21.1858C0.211045 22.7798 0.469045 23.8757 0.838303 24.8253C1.21924 25.8332 1.81101 26.7356 2.57288 27.4858C3.32307 28.2477 4.23145 28.8397 5.22774 29.2147C6.18305 29.584 7.27297 29.8417 8.86721 29.912C10.4669 29.9825 10.977 29.9999 15.0501 29.9999C19.1231 29.9999 19.6329 29.9825 21.2329 29.912C22.8269 29.8417 23.9228 29.584 24.8721 29.2147C26.8883 28.4352 28.4823 26.8412 29.2618 24.8253C29.6308 23.8699 29.8888 22.7798 29.9591 21.1858C30.0294 19.5858 30.047 19.076 30.047 15.0029C30.047 10.9299 30.0411 10.42 29.9708 8.82008ZM27.2692 21.0686C27.2047 22.5337 26.9586 23.3249 26.7535 23.8523C26.2494 25.1593 25.2121 26.1965 23.9052 26.7006C23.3777 26.9057 22.5808 27.1518 21.1214 27.2162C19.5391 27.2867 19.0645 27.3041 15.0617 27.3041C11.059 27.3041 10.5784 27.2867 9.00182 27.2162C7.53669 27.1518 6.74552 26.9057 6.21807 26.7006C5.56769 26.4602 4.97569 26.0793 4.49517 25.5812C3.99703 25.0947 3.6161 24.5086 3.37572 23.8583C3.17061 23.3308 2.92451 22.5337 2.86018 21.0745C2.78967 19.4922 2.77227 19.0174 2.77227 15.0146C2.77227 11.0118 2.78967 10.5313 2.86018 8.95492C2.92451 7.48979 3.17061 6.69862 3.37572 6.17117C3.6161 5.52056 3.99703 4.92879 4.50113 4.44804C4.98737 3.9499 5.57342 3.56896 6.22403 3.32882C6.75147 3.1237 7.5486 2.87761 9.00777 2.81305C10.5901 2.74277 11.0649 2.72514 15.0675 2.72514C19.0762 2.72514 19.5508 2.74277 21.1274 2.81305C22.5925 2.87761 23.3837 3.1237 23.9111 3.32882C24.5615 3.56896 25.1535 3.9499 25.634 4.44804C26.1322 4.93451 26.5131 5.52056 26.7535 6.17117C26.9586 6.69862 27.2047 7.49551 27.2692 8.95492C27.3395 10.5373 27.3571 11.0118 27.3571 15.0146C27.3571 19.0174 27.3395 19.4862 27.2692 21.0686Z" fill="black"/>
<path d="M15.0557 7.29639C10.8011 7.29639 7.34912 10.7481 7.34912 15.003C7.34912 19.2578 10.8011 22.7095 15.0557 22.7095C19.3105 22.7095 22.7623 19.2578 22.7623 15.003C22.7623 10.7481 19.3105 7.29639 15.0557 7.29639ZM15.0557 20.002C12.2955 20.002 10.0566 17.7634 10.0566 15.003C10.0566 12.2426 12.2955 10.0039 15.0557 10.0039C17.8161 10.0039 20.0548 12.2426 20.0548 15.003C20.0548 17.7634 17.8161 20.002 15.0557 20.002Z" fill="black"/>
<path d="M24.8663 6.99164C24.8663 7.98518 24.0607 8.79078 23.067 8.79078C22.0734 8.79078 21.2678 7.98518 21.2678 6.99164C21.2678 5.99787 22.0734 5.1925 23.067 5.1925C24.0607 5.1925 24.8663 5.99787 24.8663 6.99164Z" fill="black"/>
</g>
<defs>
<clipPath id="clip0">
<rect width="30" height="30" fill="white"/>
</clipPath>
</defs>
</svg>
