<svg width="30" height="30" viewBox="0 0 30 30" fill="none" xmlns="http://www.w3.org/2000/svg">
<path d="M15 30C23.2843 30 30 23.2843 30 15C30 6.71573 23.2843 0 15 0C6.71573 0 0 6.71573 0 15C0 23.2843 6.71573 30 15 30Z" fill="#2E2D30"/>
<path d="M14.9999 0C14.3368 0 13.6838 0.0435938 13.0434 0.126973C20.4032 1.08574 26.0868 7.37889 26.0868 15C26.0868 22.6211 20.4031 28.9143 13.0433 29.873C13.6838 29.9564 14.3368 30 14.9999 30C23.2842 30 29.9999 23.2842 29.9999 15C29.9999 6.71578 23.2842 0 14.9999 0Z" fill="#1D1D20"/>
<path d="M15 2.77173C8.25733 2.77173 2.77173 8.25728 2.77173 15C2.77173 21.7427 8.25733 27.2283 15 27.2283C21.7427 27.2283 27.2283 21.7427 27.2283 15C27.2283 8.25733 21.7427 2.77173 15 2.77173ZM22.1437 10.7491L24.5753 9.10097C25.3531 10.3589 25.8905 11.7803 26.1219 13.3011L23.1998 13.6183C23.0262 12.5852 22.6617 11.6163 22.1437 10.7491ZM7.85632 19.2509L5.42474 20.8991C4.64696 19.6412 4.10954 18.2197 3.87815 16.6989L6.80022 16.3818C6.97378 17.4148 7.33829 18.3837 7.85632 19.2509ZM8.68835 11.2634L11.1167 12.9292C10.786 13.5469 10.5979 14.2518 10.5979 15C10.5979 15.68 10.753 16.3242 11.0294 16.8997L8.53067 18.4579C7.97743 17.427 7.66308 16.2496 7.66308 15C7.66308 13.6362 8.03749 12.3585 8.68835 11.2634ZM15 18.4239C13.1121 18.4239 11.5761 16.888 11.5761 15C11.5761 13.112 13.1121 11.5761 15 11.5761C16.8879 11.5761 18.4239 13.112 18.4239 15C18.4239 16.888 16.8879 18.4239 15 18.4239ZM15.4892 10.6257V7.67977C17.6213 7.82087 19.5074 8.87638 20.7574 10.4573L18.3283 12.1236C17.621 11.3064 16.6193 10.7512 15.4892 10.6257ZM15.4892 6.69962V3.76132C17.038 3.82788 18.5067 4.20886 19.8328 4.84226L18.4563 7.43802C17.5435 7.01907 16.5423 6.76097 15.4892 6.69962ZM14.5109 6.69962C13.1506 6.7789 11.8772 7.18671 10.7688 7.84466L9.12728 5.40833C10.7074 4.43726 12.5445 3.84593 14.5109 3.76132V6.69962H14.5109ZM14.5109 7.67977V10.6257C13.3807 10.7513 12.379 11.3064 11.6717 12.1238L9.24253 10.4574C10.4926 8.87638 12.3787 7.82081 14.5109 7.67977ZM11.5492 17.7284C12.2606 18.6264 13.3138 19.2413 14.5109 19.3743V22.3202C12.2659 22.1718 10.2938 21.0091 9.0497 19.2871L11.5492 17.7284ZM14.5109 23.3004V26.2387C12.962 26.1721 11.4933 25.7912 10.1673 25.1578L11.5437 22.562C12.4565 22.9809 13.4577 23.2391 14.5109 23.3004ZM15.4892 23.3004C16.8495 23.2211 18.1228 22.8133 19.2312 22.1554L20.8727 24.5917C19.2926 25.5628 17.4555 26.1541 15.4891 26.2387V23.3004H15.4892ZM15.4892 22.3202V19.3743C16.6863 19.2413 17.7393 18.6263 18.4509 17.7284L20.9504 19.2871C19.7062 21.0091 17.7342 22.1718 15.4892 22.3202ZM21.4694 18.4579L18.9707 16.8997C19.2471 16.3242 19.4022 15.6799 19.4022 14.9999C19.4022 14.2517 19.2141 13.5468 18.8834 12.9291L21.3117 11.2633C21.9626 12.3585 22.337 13.6363 22.337 15.0001C22.3369 16.2496 22.0226 17.427 21.4694 18.4579ZM24.0256 8.29167L21.5937 9.94003C20.9688 9.12769 20.1979 8.43335 19.32 7.89739L20.6961 5.30222C21.9952 6.06821 23.1281 7.08728 24.0256 8.29167ZM8.31681 5.95612L9.95831 8.39239C9.08304 9.06183 8.34382 9.90054 7.79075 10.8598L5.16171 9.54921C5.94669 8.1381 7.0261 6.91237 8.31681 5.95612ZM4.72366 10.424L7.35317 11.7347C6.92327 12.7376 6.68485 13.8415 6.68485 15C6.68485 15.1372 6.68837 15.2736 6.69505 15.4092L3.77415 15.7261C3.75868 15.4859 3.75001 15.244 3.75001 15C3.75001 13.3714 4.09835 11.8228 4.72366 10.424ZM5.9744 21.7083L8.40634 20.06C9.03118 20.8723 9.8021 21.5667 10.6801 22.1026L9.30394 24.6978C8.0048 23.9318 6.87194 22.9127 5.9744 21.7083ZM21.6832 24.0439L20.0417 21.6076C20.917 20.9382 21.6563 20.0995 22.2093 19.1402L24.8383 20.4507C24.0533 21.8619 22.9739 23.0876 21.6832 24.0439ZM25.2764 19.5761L22.6468 18.2653C23.0767 17.2624 23.3152 16.1585 23.3152 15C23.3152 14.8628 23.3117 14.7264 23.305 14.5908L26.2259 14.2739C26.2413 14.5141 26.25 14.756 26.25 15C26.25 16.6286 25.9017 18.1773 25.2764 19.5761Z" fill="#E0E0E3"/>
</svg>
